<?xml version="1.0" encoding="UTF-8" standalone="no"?>
<svg
   width="24"
   height="24"
   viewBox="-1.5 -2.5 24 24"
   preserveAspectRatio="xMinYMin"
   class="jam jam-refresh"
   version="1.1"
   id="svg1"
   sodipodi:docname="refresh-svgrepo-com.svg"
   xmlns:inkscape="http://www.inkscape.org/namespaces/inkscape"
   xmlns:sodipodi="http://sodipodi.sourceforge.net/DTD/sodipodi-0.dtd"
   xmlns="http://www.w3.org/2000/svg"
   xmlns:svg="http://www.w3.org/2000/svg">
  <defs
     id="defs1" />
  <sodipodi:namedview
     id="namedview1"
     pagecolor="#505050"
     bordercolor="#eeeeee"
     borderopacity="1"
     inkscape:showpageshadow="0"
     inkscape:pageopacity="0"
     inkscape:pagecheckerboard="0"
     inkscape:deskcolor="#505050"
     showgrid="false" />
  <path
     d="m 17.83,4.194 0.42,-1.377 a 1.0002242,1.0002242 0 1 1 1.913,0.585 l -1.17,3.825 A 1,1 0 0 1 17.745,7.891 L 13.92,6.721 A 1,1 0 1 1 14.505,4.809 L 16.177,5.32 A 7.381,7.381 0 0 0 3.185,6.584 L 2.925,7.217 A 1,1 0 1 1 1.075,6.459 L 1.335,5.826 A 9.381,9.381 0 0 1 17.83,4.194 Z M 2.308,14.807 1.981,16.118 a 1,1 0 1 1 -1.94,-0.484 l 0.967,-3.88 a 1,1 0 0 1 1.265,-0.716 l 3.828,0.954 A 1.0002171,1.0002171 0 0 1 5.617,13.933 L 3.831,13.488 a 7.384,7.384 0 0 0 13.216,-1.792 1.0003125,1.0003125 0 1 1 1.906,0.608 9.381,9.381 0 0 1 -5.38,5.831 9.386,9.386 0 0 1 -11.265,-3.328 z"
     id="path1"
     style="fill:#ffffff" />
</svg>
